<svg width="180" height="177" viewBox="0 0 180 177" fill="none" xmlns="http://www.w3.org/2000/svg">
<path d="M1.27867 75.3808C1.65621 76.4981 2.03391 77.6158 2.41145 78.733C14.6787 83.2836 25.9174 89.8173 36.6002 97.3673C44.7014 122 48.0575 129.341 47.8865 128.935C48.4551 130.286 50.2904 131.139 51.8814 128.132C55.6432 121.016 63.2538 114.876 71.4983 112.15C75.6052 114.576 79.4209 117.349 82.8789 120.703C83.7861 121.582 88.1368 122.539 88.9231 120.285C94.8689 111.939 151.977 30.4407 152.19 30.1369C153.235 28.5326 151.691 26.552 149.932 27.0901C146.475 28.1477 84.424 49.5945 1.51077 71.5212C-0.357846 72.0163 -0.559313 74.6383 1.27867 75.3808ZM37.5998 90.6434C28.9962 83.1451 19.1704 77.2668 9.2662 73.6655C52.0288 62.2205 94.8986 49.4648 137.018 35.6464C107.584 52.7337 72.0598 72.392 37.5998 90.6434ZM51.3298 121.632C51.3237 121.541 50.4578 108.848 50.4095 108.184C58.724 105.061 63.2202 107.808 66.8088 109.598C60.7458 112.29 55.2388 116.58 51.3298 121.632ZM86.6214 116.501C76.8831 107.574 64.9916 100.88 52.5065 97.3031C106.317 66.3451 106.268 58.2925 142.046 37.4405C123.211 64.1038 105.276 90.2759 86.6214 116.501Z" fill="#242424"/>
<path d="M71.3312 175.339C91.2747 168.886 104.388 147.438 122.036 137.63C131.705 132.258 141.624 131.431 149.246 135.37C161.028 141.458 166.463 157.102 171.018 172.604C171.337 173.69 172.469 174.309 173.545 173.988C174.621 173.664 175.235 172.525 174.915 171.437C170.11 155.083 164.311 138.545 151.098 131.719C142.255 127.148 130.946 127.995 120.074 134.037C101.788 144.198 89.0439 165.3 70.0899 171.432C62.2483 173.966 51.2812 173.765 44.0059 165.584C37.8382 158.649 36.4262 144.404 43.5718 137.664C44.3923 136.891 44.4346 135.593 43.6685 134.765C42.9023 133.938 41.6134 133.894 40.7957 134.668C31.8345 143.12 33.5693 159.99 40.9809 168.325C47.9299 176.139 59.432 179.189 71.3312 175.339Z" fill="#242424"/>
<path d="M161.174 0.192197C159.737 -0.37142 158.108 0.347237 157.548 1.79002L153.191 12.9967C152.631 14.4377 153.346 16.061 154.788 16.6228C156.209 17.1771 157.846 16.4836 158.415 15.025L162.772 3.81831C163.332 2.37735 162.617 0.753989 161.174 0.192197Z" fill="#FFCD61"/>
<path d="M179.356 14.4067C178.546 13.0861 176.822 12.6757 175.502 13.4855L163.128 21.0825C161.809 21.8924 161.397 23.6179 162.207 24.9366C163.017 26.2553 164.743 26.6663 166.061 25.8577L178.435 18.2608C179.754 17.4509 180.166 15.7254 179.356 14.4067Z" fill="#FFCD61"/>
<path d="M161.725 33.1206C161.617 34.6637 162.782 36.0007 164.327 36.1065C166.892 36.2834 169.449 37.3796 171.344 39.1143C172.485 40.1585 174.257 40.0814 175.302 38.9392C176.348 37.7992 176.269 36.0262 175.127 34.9811C172.273 32.3673 168.574 30.7822 164.71 30.5177C163.182 30.3864 161.829 31.5738 161.725 33.1206Z" fill="#FFCD61"/>
</svg>
