<svg width="42" height="42" viewBox="0 0 42 42" fill="none" xmlns="http://www.w3.org/2000/svg">
<g clip-path="url(#clip0_117_1363)">
<path d="M29.4925 14.4228C29.2166 14.3423 28.7307 14.2494 28.0049 14.1363C27.0347 13.9869 26.6989 13.9919 26.5302 14.0074C26.5275 14.0078 26.5086 14.0098 26.5063 14.0098C26.3149 14.033 25.9765 14.1189 25.0449 14.5997C24.3623 14.9528 23.3552 15.6403 21.9669 16.7002C21.3931 17.1384 20.8163 17.6018 20.2477 18.0829C18.8693 17.1697 17.4025 16.2867 15.8944 15.4634C15.877 15.4548 15.8592 15.4463 15.8414 15.4386C15.6106 15.3515 13.5651 14.5896 12.6937 14.6733C12.2093 14.7201 12.0236 15.0236 12.0119 15.2923C11.9588 16.4342 12.0816 17.0482 12.4178 17.3447C12.5645 17.4775 12.9336 17.7446 14.3837 18.4755C15.5185 19.041 16.6479 19.6732 17.7474 20.3564C16.5604 21.5147 15.3991 22.7488 14.289 24.0294C14.2765 24.0448 14.2643 24.0599 14.253 24.0766C13.4741 25.267 12.594 26.82 12.8241 27.465C12.8916 27.6527 13.0363 27.7917 13.2221 27.8463C13.905 28.0468 14.4099 28.1289 14.7658 28.0952C14.9731 28.0747 15.1383 28.0166 15.2717 27.9187C15.4332 27.8022 15.7739 27.4967 16.8045 26.2301C17.9043 24.8644 19.1452 23.5195 20.4994 22.2285C20.9762 22.5777 21.3806 22.8839 21.7536 23.1812C24.0613 25.0165 25.8161 26.6989 26.9661 28.1835C27.275 28.6 27.3852 28.7215 27.447 28.7796C27.6278 28.9515 27.812 28.9945 27.9356 28.9995C27.9666 29.0006 27.9958 28.9999 28.0239 28.9968C28.2657 28.9736 28.5545 28.7854 28.5734 28.3313C28.5856 28.0445 28.5624 27.5393 28.501 26.7922C28.4165 25.7679 28.3309 25.4354 28.2736 25.2732C28.2085 25.0885 28.0466 24.7722 27.372 23.9589C26.8778 23.3659 25.9651 22.5007 24.6571 21.3873C24.1235 20.9332 23.5671 20.485 22.9671 20.0247C22.9777 20.0162 22.9887 20.0077 22.999 19.9991C25.284 18.1321 27.2943 16.7803 28.9722 15.9836C29.4399 15.7738 29.5801 15.6937 29.6491 15.6472C29.8162 15.5319 29.9257 15.3836 29.9746 15.2117C30.0588 14.9175 29.9424 14.5567 29.4925 14.4228Z" fill="#0A0F0A"/>
</g>
<rect x="0.75" y="0.75" width="40.5" height="40.5" rx="20.25" stroke="#0A0F0A" stroke-width="1.5"/>
<defs>
<clipPath id="clip0_117_1363">
<rect width="42" height="42" rx="21" fill="white"/>
</clipPath>
</defs>
</svg>
