<svg width="42" height="42" viewBox="0 0 42 42" fill="none" xmlns="http://www.w3.org/2000/svg">
<rect width="42" height="42" rx="21" fill="#772BF2"/>
<path d="M29.9743 15H12.0257C11.4615 15 11 15.45 11 16V27C11 27.5499 11.4615 28 12.0257 28H29.9743C30.5384 28 31 27.55 31 27V16C31 15.45 30.5384 15 29.9743 15ZM29.5894 15.7499L21.59 21.6C21.4462 21.7067 21.2254 21.7735 20.9999 21.7725C20.7746 21.7735 20.5538 21.7067 20.4099 21.6L12.4105 15.7499H29.5894ZM25.3164 21.986L29.6754 27.236C29.6797 27.2413 29.6851 27.2453 29.6897 27.2501H12.3102C12.3148 27.2451 12.3202 27.2413 12.3246 27.236L16.6836 21.986C16.8171 21.825 16.7918 21.589 16.6264 21.4585C16.4613 21.3283 16.2192 21.353 16.0856 21.514L11.7692 26.7127V16.2187L19.9487 22.1999C20.2561 22.4232 20.6302 22.5215 20.9999 22.5225C21.3691 22.5217 21.7435 22.4234 22.0512 22.1999L30.2306 16.2187V26.7127L25.9143 21.514C25.7807 21.353 25.5384 21.3282 25.3735 21.4585C25.2081 21.5887 25.1827 21.825 25.3164 21.986Z" fill="#F5F9F5"/>
</svg>
