<svg width="129" height="77" viewBox="0 0 129 77" fill="none" xmlns="http://www.w3.org/2000/svg">
<path d="M44.8951 6.48251C31.3504 -3.9794 0.588135 6.48262 0.588135 6.48262C0.588135 6.48262 29.2075 -4.40907 44.503 3.73232C52.5606 8.02125 56.9525 18.7554 59.0639 25.8877C59.7862 28.0697 60.3308 30.3447 60.7084 32.717C73.6856 25.8444 91.897 28.3577 103.514 37.7146C109.951 42.9001 112.569 51.9134 113.617 57.6751C114.327 60.9248 114.296 63.0541 114.296 63.0541C114.296 63.0541 114.197 60.8619 113.617 57.6751C112.247 51.4027 108.115 40.9554 95.6717 33.5895C82.1444 25.5821 60.7084 32.717 60.7084 32.717C61.1503 35.4916 61.3632 38.3992 61.3632 41.4469C61.3632 41.641 61.3546 41.8378 61.3377 42.0358C61.3377 43.2702 60.9064 44.4912 60.2222 45.5586C58.8667 47.9884 56.4663 49.7637 53.9134 48.9112C53.7985 48.8727 53.6871 48.8299 53.5797 48.7831C53.5601 48.7749 53.5409 48.7662 53.5217 48.7576C51.2416 47.724 50.6801 44.8573 51.0303 42.3674C51.1444 41.3707 51.4204 40.4278 51.8482 39.6787C53.179 37.3494 60.7084 32.717 60.7084 32.717C58.2241 34.0329 54.5588 36.6748 52.541 38.6966C52.2881 38.9499 52.0548 39.2847 51.8482 39.6787C51.4624 40.416 51.1718 41.3613 51.0303 42.3674C50.7378 44.9249 51.511 47.8387 53.5213 48.7572C53.5213 48.7576 53.5217 48.7576 53.5217 48.7576C53.5409 48.7662 53.5601 48.7749 53.5797 48.7831C55.6817 49.6891 58.6342 48.0355 60.2222 45.5586C60.8362 44.4574 61.2358 43.2218 61.3377 42.0358C61.3377 41.5934 61.3091 40.9197 61.2648 40.132L60.7084 32.717C60.7084 32.717 53.179 37.3494 51.8482 39.6787C52.0548 39.2847 52.2881 38.9499 52.541 38.6966C54.5588 36.6748 58.2241 34.0329 60.7084 32.717C60.7084 32.717 60.2402 29.8614 59.0639 25.8877C56.5773 18.3727 51.9889 11.9617 44.8951 6.48251Z" fill="white"/>
<path d="M0.588173 6.48255L0.379333 5.93165L0.777215 7.04057L0.588173 6.48255ZM114.296 63.054L113.709 63.0807L114.885 63.0622L114.296 63.054ZM51.8482 39.6786L51.3381 39.3859L51.2601 39.5218V39.6786H51.8482ZM53.5213 48.7571L53.7738 48.2252L53.7695 48.2232L53.7652 48.2213L53.5213 48.7571ZM0.588173 6.48255C0.777215 7.04057 0.777101 7.04061 0.777215 7.04057C0.777411 7.04049 0.777756 7.04037 0.778144 7.04025C0.778921 7.03998 0.78016 7.03954 0.781865 7.03896C0.785276 7.03782 0.790538 7.03605 0.797631 7.03365C0.811814 7.0289 0.833316 7.02171 0.861951 7.01216C0.919225 6.99315 1.00504 6.96486 1.11792 6.92829C1.34369 6.85514 1.67773 6.74883 2.10832 6.61699C2.96958 6.3533 4.21676 5.98763 5.75629 5.58114C8.83653 4.76785 13.0813 3.79269 17.7434 3.14294C22.4085 2.49279 27.4729 2.17116 32.1982 2.65506C36.9288 3.1395 41.2698 4.42622 44.536 6.94911L45.2543 6.01572C41.7482 3.3077 37.1646 1.97894 32.3178 1.4826C27.4658 0.985722 22.3 1.31799 17.5814 1.9756C12.8599 2.63362 8.56751 3.62008 5.45653 4.44146C3.90047 4.85235 2.63853 5.22227 1.76457 5.48988C1.32755 5.62365 0.98745 5.73192 0.755991 5.80688C0.640259 5.8444 0.551677 5.87358 0.491713 5.8935C0.461734 5.90348 0.438906 5.9111 0.423414 5.91633C0.415666 5.91892 0.409753 5.92092 0.405699 5.9223C0.403672 5.92297 0.402111 5.92352 0.401013 5.92387C0.400464 5.92407 0.399994 5.92422 0.399719 5.9243C0.399367 5.92442 0.399131 5.9245 0.588173 6.48255ZM60.7751 41.4468C60.7751 41.6236 60.7673 41.8032 60.7516 41.9854L61.9236 42.086C61.942 41.8723 61.9514 41.6586 61.9514 41.4468H60.7751ZM60.7516 41.9854C60.6579 43.0796 60.2865 44.2349 59.7086 45.2709L60.7355 45.8461C61.386 44.68 61.8138 43.3644 61.9236 42.086L60.7516 41.9854ZM59.7086 45.2709C58.4037 47.6108 56.2444 49.0683 54.0993 48.3521L53.7275 49.4702C56.6887 50.459 59.3302 48.3654 60.7355 45.8461L59.7086 45.2709ZM54.0993 48.3521C54.0004 48.3187 53.9052 48.2822 53.8134 48.2425L53.3456 49.324C53.4692 49.3774 53.5962 49.4262 53.7275 49.4702L54.0993 48.3521ZM53.8134 48.2425C53.7969 48.2354 53.7805 48.2279 53.764 48.2205L53.2794 49.2946C53.3013 49.3044 53.3233 49.3142 53.3456 49.324L53.8134 48.2425ZM53.764 48.2205C52.8104 47.7883 52.1921 46.9669 51.8482 45.9238C51.5016 44.8729 51.4471 43.6288 51.6126 42.4498L50.448 42.2852C50.2638 43.5962 50.3147 45.0301 50.7311 46.2935C51.1503 47.5644 51.9529 48.6935 53.2794 49.2946L53.764 48.2205ZM51.6126 42.4498C51.7467 41.4979 52.0196 40.6199 52.3693 39.9524L51.3275 39.4048C50.9048 40.2121 50.597 41.2241 50.448 42.2852L51.6126 42.4498ZM52.3693 39.9524C52.556 39.5957 52.7567 39.3136 52.9571 39.1132L52.125 38.2799C51.8196 38.5859 51.5534 38.9734 51.3275 39.4048L52.3693 39.9524ZM103.145 38.1738C109.407 43.2171 111.995 52.041 113.039 57.7807L114.196 57.5693C113.144 51.7857 110.497 42.5834 103.882 37.2552L103.145 38.1738ZM113.039 57.7807C113.326 59.3568 113.493 60.6862 113.589 61.6197C113.637 62.0864 113.667 62.4541 113.685 62.7039C113.694 62.8289 113.7 62.924 113.704 62.9876C113.705 63.0194 113.707 63.0434 113.708 63.0587C113.708 63.0666 113.709 63.0725 113.709 63.076C113.709 63.078 113.709 63.0791 113.709 63.0799C113.709 63.0803 113.709 63.0803 113.709 63.0807C113.709 63.0807 113.709 63.0807 114.296 63.054C114.884 63.0269 114.884 63.0269 114.884 63.0269C114.884 63.0265 114.884 63.0265 114.884 63.0261C114.884 63.0257 114.884 63.0253 114.884 63.0245C114.884 63.0233 114.884 63.0214 114.883 63.0186C114.883 63.0139 114.883 63.0068 114.883 62.9978C114.881 62.9797 114.88 62.9534 114.878 62.9192C114.874 62.8505 114.868 62.7495 114.858 62.6191C114.839 62.3582 114.808 61.9787 114.759 61.4991C114.661 60.5401 114.489 59.18 114.196 57.5693L113.039 57.7807ZM0.588173 6.48255C0.797012 7.03342 0.797008 7.03342 0.79711 7.03338C0.79729 7.0333 0.797502 7.03322 0.797863 7.0331C0.79858 7.03283 0.799729 7.03239 0.801313 7.03181C0.804478 7.03059 0.809367 7.02874 0.815962 7.02627C0.829152 7.02128 0.849157 7.01377 0.875823 7.00383C0.929153 6.98396 1.00912 6.95437 1.11443 6.91595C1.32507 6.83915 1.63709 6.72718 2.04026 6.58729C2.84667 6.30746 4.01742 5.91609 5.47069 5.47153C8.3782 4.58211 12.4118 3.4811 16.9183 2.63355C21.4268 1.7856 26.3944 1.19405 31.1735 1.31643C35.9573 1.43893 40.5135 2.27594 44.227 4.25266L44.7791 3.21184C40.8448 1.11786 36.0878 0.263315 31.2036 0.138242C26.3147 0.0130492 21.2596 0.617906 16.7013 1.4752C12.141 2.33289 8.06382 3.44598 5.12721 4.34431C3.65842 4.79362 2.47378 5.18958 1.65531 5.47358C1.24605 5.61559 0.928263 5.72968 0.712201 5.80845C0.604167 5.84781 0.52156 5.87842 0.465654 5.89924C0.437702 5.90965 0.416427 5.91766 0.401986 5.92308C0.394767 5.92579 0.389256 5.92788 0.385474 5.92933C0.383583 5.93004 0.382124 5.93059 0.381099 5.93098C0.380587 5.93118 0.380146 5.93133 0.379889 5.93145C0.379557 5.93157 0.379333 5.93165 0.588173 6.48255ZM52.9571 39.1132C54.9293 37.1369 58.5456 34.529 60.9833 33.238L60.4336 32.196C57.9022 33.5367 54.1883 36.2125 52.125 38.2799L52.9571 39.1132ZM60.9833 33.238C73.7312 26.4867 91.6916 28.9481 103.145 38.1738L103.882 37.2552C92.1025 27.7671 73.6402 25.2019 60.4336 32.196L60.9833 33.238ZM44.536 6.94911C51.5451 12.3628 56.059 18.6789 58.5056 26.0731L59.6223 25.7022C57.0953 18.0663 52.4328 11.5605 45.2543 6.01572L44.536 6.94911ZM58.5056 26.0731C59.2173 28.2229 59.7549 30.4668 60.1278 32.8098L61.2895 32.6241C60.9072 30.2225 60.3548 27.9164 59.6223 25.7022L58.5056 26.0731ZM60.1278 32.8098C60.5642 35.5502 60.7751 38.4266 60.7751 41.4468H61.9514C61.9514 38.3718 61.7365 35.4328 61.2895 32.6241L60.1278 32.8098ZM44.227 4.25266C48.1198 6.3247 51.1632 9.97592 53.5041 14.0383C55.8417 18.0952 57.4521 22.5142 58.5002 26.0552L59.6278 25.7201C58.5649 22.1288 56.9231 17.6146 54.5227 13.449C52.1254 9.28904 48.944 5.42875 44.7791 3.21184L44.227 4.25266ZM58.5002 26.0552C59.0836 28.0259 59.4914 29.7191 59.7529 30.9183C59.8835 31.5178 59.978 31.9934 60.0391 32.3183C60.0697 32.4807 60.0925 32.6053 60.107 32.6888C60.1144 32.7306 60.1199 32.762 60.1234 32.7828C60.125 32.7932 60.1262 32.8009 60.127 32.8059C60.1278 32.8083 60.1278 32.8102 60.1281 32.8112C60.1281 32.8118 60.1281 32.8122 60.1281 32.8124C60.1281 32.8124 60.1281 32.8125 60.7084 32.717C61.2891 32.6214 61.2891 32.6213 61.2891 32.6213C61.2891 32.6212 61.2887 32.6211 61.2887 32.6211C61.2887 32.6209 61.2887 32.6207 61.2887 32.6205C61.2887 32.62 61.2888 32.6193 61.2884 32.6185C61.2884 32.6169 61.288 32.6145 61.2872 32.6114C61.2864 32.6054 61.2848 32.5966 61.2829 32.585C61.2789 32.5621 61.2731 32.5283 61.2652 32.4842C61.2499 32.396 61.2264 32.2665 61.195 32.0991C61.1319 31.7643 61.0355 31.2777 60.9021 30.6666C60.6355 29.4446 60.2207 27.723 59.6278 25.7201L58.5002 26.0552ZM61.9498 41.4024L61.851 40.0876L60.6783 40.1759L60.7767 41.4908L61.9498 41.4024ZM61.851 40.0876L61.295 32.6728L60.1223 32.7611L60.6783 40.1759L61.851 40.0876ZM60.7084 32.717C60.8939 33.2762 60.8939 33.2762 60.8939 33.2762C60.8943 33.2762 60.8943 33.2762 60.8943 33.2761C60.8951 33.2759 60.8959 33.2756 60.8967 33.2753C60.899 33.2745 60.9025 33.2734 60.9072 33.2718C60.917 33.2687 60.9316 33.2639 60.9512 33.2575C60.9908 33.2448 61.05 33.2258 61.1284 33.2012C61.2852 33.1519 61.5185 33.0803 61.8212 32.9916C62.4262 32.8144 63.3081 32.5693 64.4091 32.2997C66.6119 31.7603 69.6887 31.1241 73.1822 30.7361C80.1949 29.9574 88.7767 30.1924 95.3726 34.0968L95.9709 33.082C89.0394 28.979 80.1396 28.7778 73.0525 29.5647C69.4965 29.9596 66.3688 30.6066 64.1299 31.1548C63.0097 31.429 62.111 31.6788 61.4911 31.8604C61.1809 31.9512 60.9406 32.0251 60.7771 32.0764C60.6951 32.1021 60.6324 32.1222 60.5896 32.136C60.5685 32.1428 60.5524 32.1482 60.541 32.1518C60.5355 32.1536 60.5312 32.1551 60.5281 32.156C60.5269 32.1566 60.5257 32.1569 60.5246 32.1572C60.5242 32.1574 60.5238 32.1575 60.5238 32.1576C60.5234 32.1576 60.5234 32.1577 60.7084 32.717ZM95.3726 34.0968C107.637 41.3565 111.696 51.638 113.043 57.8011L114.192 57.5493C112.797 51.1669 108.595 40.5543 95.9709 33.082L95.3726 34.0968ZM113.043 57.8011C113.392 59.3981 113.558 60.7173 113.637 61.6338C113.677 62.0919 113.695 62.449 113.702 62.6898C113.706 62.81 113.708 62.9012 113.708 62.9609C113.709 62.9907 113.709 63.0131 113.708 63.0273C113.708 63.0343 113.708 63.0394 113.708 63.0422C113.708 63.0438 113.708 63.045 113.708 63.0453C113.708 63.0453 113.708 63.0453 114.296 63.054C114.885 63.0622 114.885 63.0622 114.885 63.0622V63.0618C114.885 63.0618 114.885 63.0614 114.885 63.0611C114.885 63.0607 114.885 63.0599 114.885 63.0591C114.885 63.0575 114.885 63.0556 114.885 63.0528C114.885 63.0477 114.885 63.0402 114.885 63.0312C114.885 63.0123 114.885 62.9856 114.885 62.9511C114.884 62.8819 114.882 62.7813 114.878 62.6509C114.87 62.3908 114.85 62.0125 114.809 61.5321C114.726 60.5719 114.553 59.2016 114.192 57.5493L113.043 57.8011ZM60.7084 32.717C60.401 32.2148 60.4007 32.2149 60.4007 32.2149C60.4007 32.2149 60.4007 32.215 60.4003 32.2151C60.4003 32.2152 60.3999 32.2155 60.3991 32.2158C60.3983 32.2164 60.3967 32.2173 60.3948 32.2185C60.3908 32.2209 60.3854 32.2243 60.3779 32.2289C60.3634 32.238 60.3418 32.2514 60.3136 32.2689C60.2571 32.3039 60.1748 32.3554 60.0697 32.4216C59.8592 32.554 59.5576 32.7454 59.1922 32.9823C58.4609 33.4558 57.4709 34.1123 56.4381 34.8429C55.4069 35.5725 54.3251 36.3814 53.4127 37.1595C52.5187 37.9222 51.7263 38.7059 51.3381 39.3859L52.3587 39.9713C52.6356 39.4865 53.2833 38.8178 54.1753 38.0569C55.0493 37.3113 56.0993 36.5254 57.1168 35.8057C58.1328 35.0871 59.1083 34.4399 59.8305 33.9721C60.1917 33.7383 60.4889 33.5496 60.6955 33.4196C60.7986 33.3546 60.8794 33.3042 60.9339 33.2703C60.9613 33.2533 60.9821 33.2404 60.9959 33.2318C61.0029 33.2275 61.008 33.2243 61.0115 33.2221C61.0131 33.2211 61.0143 33.2203 61.0155 33.2198C61.0159 33.2195 61.0159 33.2194 61.0162 33.2193C61.0162 33.2192 61.0162 33.2193 61.0162 33.2193C61.0162 33.2193 61.0162 33.2192 60.7084 32.717ZM51.2601 39.6786C51.2601 39.5992 51.2762 39.5332 51.2934 39.4837C51.302 39.4594 51.3111 39.4382 51.3197 39.4205C51.3283 39.4028 51.3369 39.3875 51.344 39.3753C51.3514 39.3631 51.3581 39.3529 51.3636 39.3447C51.3695 39.3368 51.3742 39.3301 51.3777 39.325C51.3816 39.3203 51.3844 39.3164 51.3863 39.314C51.3871 39.3128 51.3879 39.3121 51.3883 39.3113C51.3887 39.3109 51.3891 39.3105 51.3891 39.3105C51.3887 39.3105 51.3887 39.3113 51.3883 39.3113C51.3879 39.3121 51.3871 39.3128 51.3863 39.314C51.3844 39.3164 51.3816 39.3203 51.3777 39.325C51.3742 39.3301 51.3695 39.3368 51.3636 39.3447C51.3581 39.3529 51.3514 39.3631 51.344 39.3753C51.3365 39.3875 51.3283 39.4028 51.3197 39.4205C51.3111 39.4382 51.302 39.459 51.2934 39.4837C51.2762 39.5328 51.2601 39.5996 51.2601 39.6786H52.4364C52.4364 39.7579 52.4207 39.8243 52.4034 39.8734C52.3948 39.8978 52.3858 39.919 52.3772 39.9367C52.3685 39.9544 52.3599 39.9697 52.3529 39.9819C52.3454 39.9941 52.3387 40.0043 52.3329 40.0125C52.3274 40.0208 52.3227 40.0274 52.3187 40.0322C52.3152 40.0373 52.3121 40.0408 52.3105 40.0432C52.3097 40.0443 52.3089 40.0451 52.3082 40.0459C52.3078 40.0463 52.3078 40.0467 52.3078 40.0467C52.3078 40.0463 52.3082 40.0463 52.3082 40.0459C52.3089 40.0451 52.3097 40.0443 52.3105 40.0432C52.3121 40.0408 52.3152 40.0369 52.3187 40.0322C52.3227 40.0274 52.3274 40.0204 52.3329 40.0125C52.3387 40.0043 52.3454 39.9941 52.3529 39.9819C52.3599 39.9697 52.3685 39.9544 52.3772 39.9367C52.3858 39.919 52.3948 39.8978 52.4034 39.8734C52.4207 39.8239 52.4364 39.7579 52.4364 39.6786H51.2601ZM51.3381 39.3859C50.8613 40.2199 50.5668 41.2441 50.4461 42.3005L51.6145 42.4345C51.722 41.4971 51.9796 40.6356 52.3587 39.9713L51.3381 39.3859ZM50.4461 42.3005C50.2908 43.6551 50.4159 45.1142 50.8574 46.3721C51.2973 47.6261 52.0772 48.7449 53.2774 49.2934L53.7652 48.2213C52.9551 47.8508 52.3431 47.0533 51.967 45.9816C51.5926 44.9138 51.4769 43.637 51.6145 42.4345L50.4461 42.3005ZM53.2688 49.2894C53.2727 49.2914 53.2755 49.2926 53.2774 49.2934C53.2782 49.2938 53.279 49.2942 53.2794 49.2946C53.2798 49.2946 53.2798 49.2946 53.2798 49.2946C53.2798 49.2949 53.2802 49.2949 53.2802 49.2949C53.2806 49.2949 53.279 49.2942 53.2774 49.2934C53.2759 49.2926 53.2727 49.2914 53.2692 49.2898L53.7742 48.2252C53.7703 48.2236 53.7675 48.2221 53.7656 48.2213C53.7648 48.2209 53.764 48.2205 53.7636 48.2205C53.7632 48.2201 53.7632 48.2201 53.7632 48.2201C53.7628 48.2201 53.7628 48.2201 53.7628 48.2201C53.7624 48.2197 53.764 48.2205 53.7656 48.2213C53.7672 48.2221 53.7703 48.2232 53.7738 48.2252L53.2688 49.2894ZM53.2778 49.2938C53.3009 49.3044 53.3241 49.3146 53.3472 49.3244L53.8118 48.2417C53.7966 48.235 53.7809 48.2283 53.7656 48.2213L53.2778 49.2938ZM53.3472 49.3244C54.616 49.8713 56.0707 49.6202 57.3599 48.9649C58.6574 48.3049 59.8698 47.1987 60.7171 45.8771L59.7274 45.2403C58.9867 46.3953 57.9289 47.3538 56.8275 47.9137C55.7182 48.4778 54.6454 48.6008 53.8118 48.2417L53.3472 49.3244ZM60.7171 45.8771C61.4483 44.7362 61.9259 43.4068 61.9259 42.0357H60.7496C60.7496 43.1338 60.365 44.2456 59.7274 45.2403L60.7171 45.8771ZM61.9259 42.0357C61.9259 41.5753 61.8965 40.887 61.8518 40.0986L60.6775 40.1653C60.7222 40.9518 60.7496 41.6114 60.7496 42.0357H61.9259ZM61.8518 40.0986C61.7687 38.6291 61.6291 36.7699 61.5107 35.2809C61.4515 34.5358 61.3974 33.8822 61.3582 33.4149C61.3385 33.1812 61.3229 32.994 61.3119 32.8653C61.306 32.8009 61.3021 32.7511 61.2989 32.7174C61.2974 32.7005 61.2966 32.6876 61.2958 32.679C61.2954 32.6747 61.295 32.6714 61.295 32.6692C61.2946 32.6681 61.2946 32.6673 61.2946 32.6667C61.2946 32.6664 61.2946 32.6662 61.2946 32.666C61.2946 32.666 61.2946 32.6661 61.2946 32.666C61.2946 32.666 61.2946 32.6659 60.7084 32.717C60.1227 32.7681 60.1227 32.7681 60.1227 32.7682C60.1227 32.7681 60.1227 32.7682 60.1227 32.7682C60.1227 32.7683 60.1227 32.7686 60.1227 32.7689C60.1227 32.7694 60.123 32.7702 60.123 32.7713C60.123 32.7734 60.1234 32.7766 60.1238 32.7809C60.1246 32.7894 60.1258 32.8021 60.127 32.8189C60.1301 32.8523 60.1344 32.9019 60.1399 32.966C60.1509 33.0942 60.1666 33.2807 60.1862 33.5137C60.2254 33.9797 60.2791 34.6314 60.3383 35.3744C60.4563 36.8617 60.5951 38.7099 60.6775 40.1653L61.8518 40.0986Z" fill="#FCD569"/>
<path d="M105.569 60.9627L114.644 74.9523C114.822 75.2261 115.236 75.1758 115.343 74.8671L121.007 58.5309C121.143 58.1396 120.66 57.8316 120.363 58.1203L114.676 63.66C114.565 63.7689 114.399 63.8011 114.255 63.7421L106.046 60.3848C105.69 60.2394 105.359 60.6397 105.569 60.9627Z" fill="#FCD569"/>
<path d="M114.267 62.9287C115.273 61.8923 116.245 60.8485 117.264 59.8526C118.263 58.8767 119.302 57.9417 120.339 57.006C120.643 56.7506 120.965 56.518 121.304 56.3102C121.438 56.2214 121.589 56.159 121.748 56.126C122.121 56.0501 122.376 56.331 122.287 56.7019C122.277 56.7447 122.263 56.7864 122.249 56.8284C121.151 60.2317 120.071 63.6409 118.951 67.0364C118.112 69.579 117.226 72.1062 116.349 74.6362C116.172 75.1497 115.96 75.6529 115.733 76.1467C115.474 76.7121 114.974 76.7726 114.599 76.2764C114.182 75.7248 113.8 75.1457 113.406 74.5773C111.676 72.0842 109.925 69.6057 108.228 67.0914C107.405 65.8727 106.69 64.5826 105.915 63.3313C105.457 62.5932 104.959 61.8797 104.518 61.1317C104.298 60.7342 104.116 60.3166 103.974 59.8848C103.867 59.5827 103.983 59.4307 104.287 59.314C104.946 59.061 105.593 59.1419 106.22 59.4055C108.036 60.1688 109.905 60.8029 111.665 61.7022C112.515 62.1359 113.392 62.5181 114.267 62.9287ZM115.085 74.9489C117.229 69.2548 119.068 63.5309 120.976 57.8266C120.846 57.897 120.726 57.9857 120.62 58.0902C119.404 59.3301 118.179 60.5613 116.981 61.8181C116.302 62.5311 115.669 63.2901 115.009 64.0224C114.74 64.3213 114.398 64.3873 114.108 64.1481C113.687 63.8004 113.191 63.6225 112.701 63.4276C110.461 62.535 108.218 61.6472 105.974 60.764C105.93 60.7495 105.884 60.7397 105.837 60.7346C108.604 65.637 111.731 70.3203 115.085 74.9485V74.9489Z" fill="#FCD569"/>
</svg>
