<svg width="42" height="42" viewBox="0 0 42 42" fill="none" xmlns="http://www.w3.org/2000/svg">
<rect width="42" height="42" rx="21" fill="#772BF2"/>
<path d="M23.8507 17.0524C23.8507 18.6268 22.5744 19.9031 21 19.9031C19.4257 19.9031 18.1494 18.6268 18.1494 17.0524C18.1494 15.4781 19.4257 14.2018 21 14.2018C22.5744 14.2018 23.8507 15.4781 23.8507 17.0524Z" stroke="#F5F9F5" stroke-width="1.5" stroke-miterlimit="10" stroke-linecap="round" stroke-linejoin="round"/>
<path d="M25.7901 13.3518C24.6508 11.8796 22.8618 11 21 11C19.1382 11 17.3492 11.8796 16.2099 13.3518C14.925 15.0126 14.6951 17.0137 15.3704 18.9694C16.0197 20.8494 17.3984 22.4171 18.5258 24.0328C19.3322 25.1887 20.1386 26.3446 20.945 27.5008C20.9632 27.5269 20.9818 27.5534 21 27.5794C21.0182 27.5534 21.0368 27.5269 21.055 27.5008C21.8614 26.3446 22.6678 25.1887 23.4742 24.0328C24.6016 22.4171 25.9803 20.8494 26.6296 18.9694C27.3049 17.0137 27.075 15.0126 25.7901 13.3518Z" stroke="#F5F9F5" stroke-width="1.5" stroke-miterlimit="10" stroke-linecap="round" stroke-linejoin="round"/>
<path d="M17.2058 26.3106L15.442 27.4247L21.0001 30.9357L26.5581 27.4247L24.7943 26.3106" stroke="#F5F9F5" stroke-width="1.5" stroke-miterlimit="10" stroke-linecap="round" stroke-linejoin="round"/>
</svg>
