<svg width="133" height="145" viewBox="0 0 133 145" fill="none" xmlns="http://www.w3.org/2000/svg">
<path d="M109.332 -5C112.591 -0.731223 117.116 5.16117 121.104 10.2734C123.289 13.0733 125.32 15.6499 126.896 17.6006C127.683 18.5741 128.369 19.4074 128.908 20.0391C129.217 20.4007 129.586 20.8239 129.931 21.1689C129.932 21.1794 129.936 21.1899 129.938 21.2012C130 21.595 130.02 22.2042 129.976 22.999C129.914 24.0873 129.744 25.2821 129.559 26.2979L122.936 30.3184C120.391 31.3578 116.629 32.918 113.33 34.333C111.634 35.0603 110.044 35.757 108.8 36.3281C108.18 36.6127 107.625 36.875 107.178 37.1006C106.809 37.2864 106.291 37.5552 105.909 37.8408C105.134 38.4205 103.745 39.7916 102.522 41.0303C101.214 42.3556 99.8319 43.8039 98.9561 44.7354L97.3936 46.3975L98.5771 48.3467L106.523 61.4414L106.529 61.4512L106.535 61.46C107.91 63.6879 109.969 67.0785 111.681 70.0059C112.539 71.4733 113.295 72.7994 113.831 73.7969C114.078 74.2562 114.26 74.6154 114.381 74.8711V83.1934L109.213 88.8887L99.4834 91.2402L83.668 86.6396L82.2002 86.2129L80.9922 87.1494L74.7725 91.9736L73.4189 93.0234L73.6348 94.7227L76.3369 115.944L74.4287 125.462L41.2861 109.559L37.6934 107.835L37.0303 111.764L32.1475 140.673L-4 124.45V-5H109.332Z" fill="#FCD569" stroke="black" stroke-width="6"/>
</svg>
