<svg width="238" height="165" viewBox="0 0 238 165" fill="none" xmlns="http://www.w3.org/2000/svg">
<g clip-path="url(#clip0_1_666)">
<path d="M232.932 -0.0942115C234.123 -0.0971252 234.123 -0.0971252 235.337 -0.100098C237.249 -3.34382e-05 237.249 -3.34382e-05 238 0.753391C239.462 15.621 232.908 29.395 223.735 40.6849C222.008 42.6521 220.259 44.5888 218.465 46.4945C216.927 48.2777 215.699 49.8351 214.725 51.9863C215.103 53.6544 215.103 53.6544 216.086 55.1883C218.211 59.4891 218.619 62.8686 217.092 67.4639C214.325 73.6851 210.285 77.5556 204.027 80.1455C200.212 81.5474 196.988 82.2391 192.906 82.2645C191.731 82.2805 191.731 82.2805 190.533 82.2969C188.448 82.1233 188.448 82.1233 186.196 80.6164C186.606 77.8012 187.618 76.7974 189.809 75.0599C193.193 72.2174 196.005 69.3673 196.707 64.7945C196.304 65.0431 195.901 65.2917 195.487 65.5479C193.107 66.5533 191.77 66.706 189.199 66.3013C187.274 64.9642 185.602 63.4351 183.943 61.7808C183.401 62.1693 182.859 62.5578 182.301 62.958C179.874 64.2026 178.976 64.0889 176.435 63.2876C176.846 60.7451 177.227 59.4585 178.688 57.2602C178.354 56.8863 178.02 56.5124 177.676 56.1272C174.247 51.9964 174.247 51.9964 174.051 49.6583C174.277 48.2191 174.277 48.2191 174.934 45.9589C171.974 45.624 171.974 45.624 170.455 47.2833C169.967 47.8718 169.478 48.4604 168.974 49.0667C168.457 49.6815 167.939 50.2963 167.405 50.9297C166.917 51.527 166.428 52.1243 165.924 52.7397C165.521 53.2204 165.117 53.7012 164.701 54.1965C163.85 55.2114 163.009 56.2347 162.17 57.2602C160.178 56.9845 159.337 56.6929 157.959 55.1824C156.135 52.2309 156.492 49.318 156.915 45.9589C158.68 38.9593 163.014 33.4358 168.927 29.3835C169.331 29.1038 169.735 28.8241 170.15 28.5359C173.556 26.4811 175.815 26.3432 179.767 26.6995C183.47 26.8278 183.47 26.8278 186.454 24.8277C187.54 23.3876 188.601 21.9282 189.642 20.4543C198.886 8.335 217.914 -0.131331 232.932 -0.0942115ZM193.703 22.6027C188.22 28.2159 184.83 34.5297 181.58 41.5818C180.965 42.8922 180.304 44.1805 179.641 45.4674C178.562 47.3374 178.562 47.3374 178.735 49.0667C179.658 50.9199 180.919 52.113 182.442 53.4931C184.969 52.4005 186.556 51.0107 188.448 49.0197C193.457 43.7668 193.457 43.7668 196.519 43.5573C197.355 43.6273 197.355 43.6273 198.208 43.6986C196.551 47.6313 194.451 49.9131 191.31 52.6455C190.891 53.0204 190.471 53.3953 190.039 53.7815C189.014 54.6962 187.981 55.6024 186.946 56.5068C188.185 57.75 189.424 58.9931 190.7 60.2739C205.978 55.8574 217.795 40.1539 226.738 27.8767C224.241 21.7277 216.281 15.2138 210.972 11.3013C205.353 11.3013 197.707 18.9241 193.703 22.6027Z" fill="#1A1C0E"/>
<path d="M155.883 78.874C157.666 79.1095 157.666 79.1095 158.416 79.8629C158.847 84.1833 158.001 87.0126 155.413 90.4108C144.668 103.345 128.433 110.448 112.008 112.119C109.176 112.3 106.809 112.283 104.078 111.507C100.805 110.601 99.3078 110.3 96.101 111.507C94.4916 113.45 93.118 115.5 91.7077 117.593C86.2907 124.986 76.851 130.087 67.8848 131.661C48.9426 133.626 32.1525 124.794 17.7169 113.243C4.66804 102.587 4.66804 102.587 3.75397 97.1917C9.73304 95.5309 15.0962 99.3703 20.1892 102.26C22.2205 103.428 24.2468 104.604 26.2712 105.784C45.1737 117.118 45.1737 117.118 66.5592 118.694C73.9706 116.696 80.5575 112.678 84.8391 106.233C85.088 104.34 85.1697 102.468 85.2585 100.561C85.6512 98.3543 86.3012 97.2934 87.8423 95.6848C92.4458 94.742 94.9893 96.7202 98.7053 99.0958C105.018 102.781 112.033 101.928 118.915 100.391C131.205 97.0901 145.151 91.2962 152.827 80.478C153.912 79.1095 153.912 79.1095 155.883 78.874Z" fill="#171B14"/>
<path d="M155.883 78.874C157.666 79.1095 157.666 79.1095 158.416 79.8629C158.847 84.1833 158.001 87.0126 155.413 90.4108C144.668 103.345 128.433 110.448 112.008 112.119C109.176 112.3 106.809 112.283 104.078 111.507C100.805 110.601 99.3078 110.3 96.101 111.507C94.4916 113.45 93.118 115.5 91.7077 117.593C86.2907 124.986 76.851 130.087 67.8848 131.661C48.9426 133.626 32.1525 124.794 17.7169 113.243C4.66804 102.587 4.66804 102.587 3.75397 97.1917C9.73304 95.5309 15.0962 99.3703 20.1892 102.26C22.2205 103.428 24.2468 104.604 26.2712 105.784C45.1737 117.118 45.1737 117.118 66.5592 118.694C73.9706 116.696 80.5575 112.678 84.8391 106.233C85.088 104.34 85.1697 102.468 85.2585 100.561C85.6512 98.3543 86.3012 97.2934 87.8423 95.6848C92.4458 94.742 94.9893 96.7202 98.7053 99.0958C105.018 102.781 112.033 101.928 118.915 100.391C131.205 97.0901 145.151 91.2962 152.827 80.478C153.912 79.1095 153.912 79.1095 155.883 78.874ZM155.413 80.6163C154.458 81.5929 153.505 82.572 152.564 83.5634C141.981 94.6584 126.39 102.933 110.828 103.628C104.37 103.691 99.0252 102.618 93.9894 98.4631C92.4188 96.9566 92.4188 96.9566 90.2824 97.3329C88.6383 97.793 88.6383 97.793 87.8423 98.6985C87.7234 99.7476 87.6346 100.8 87.5608 101.853C86.9259 107.623 84.5345 110.875 80.1467 114.544C71.6198 120.67 62.7832 121.983 52.5552 120.548C48.5241 119.551 44.968 117.924 41.2934 116.027C40.6398 115.7 39.9861 115.372 39.3127 115.035C31.0518 110.889 22.9719 106.541 15.2064 101.518C12.3717 99.9949 9.89326 99.3629 6.75712 98.6985C12.0717 111.51 30.9531 121.365 42.9948 126.355C52.6191 130.211 63.7563 131.719 73.7181 127.988C75.1921 127.307 76.649 126.586 78.082 125.822C78.7663 125.468 79.4505 125.115 80.1555 124.751C86.2026 121.376 90.4152 117.241 93.8164 111.207C94.5994 110 94.5994 110 96.101 109.246C101.457 109.073 101.457 109.073 103.497 109.617C115.697 112.511 129.67 107.152 140.045 100.825C146.955 96.4088 154.072 91.6438 156.915 83.63C156.647 81.9903 156.647 81.9903 156.164 80.6163C155.916 80.6163 155.669 80.6163 155.413 80.6163Z" fill="#772BF2"/>
<path d="M213.121 19.3302C216.805 21.1667 218.365 23.3601 219.981 27.1234C220.361 29.8498 220.176 31.2134 219.043 33.7159C217.346 35.9043 215.845 36.7423 213.113 37.171C209.005 37.2433 206.695 36.6839 203.464 33.9042C201.476 31.7718 200.593 30.0573 200.461 27.1234C201.141 24.0138 202.008 21.7249 204.402 19.5891C207.456 18.4749 210.006 18.229 213.121 19.3302Z" fill="#191B0E"/>
<path d="M234.246 3.76698C234.822 9.97443 232.667 16.4142 229.741 21.8492C226.328 20.2713 223.781 17.9511 220.967 15.4921C220.449 15.0507 219.932 14.6093 219.399 14.1545C218.907 13.7267 218.415 13.2989 217.908 12.8581C217.459 12.4692 217.01 12.0803 216.548 11.6796C215.476 10.5478 215.476 10.5478 214.726 8.28752C216.849 7.5225 218.976 6.77135 221.107 6.02725C221.702 5.81164 222.296 5.59603 222.908 5.37389C226.861 4.00826 230.067 3.53613 234.246 3.76698Z" fill="#F5CF66"/>
<path d="M210.443 55.106C211.722 55.7535 211.722 55.7535 212.473 57.2603C212.876 60.9514 212.898 63.9241 211.253 67.2903C208.668 70.2254 205.749 73.3222 201.962 74.5891C200.273 74.3065 200.273 74.3065 198.959 73.8357C199.215 73.2957 199.472 72.7557 199.736 72.1993C200.539 69.838 200.376 68.5527 200.038 66.1131C199.952 63.0779 200.215 62.0755 202.188 59.7089C207.79 54.943 207.79 54.943 210.443 55.106Z" fill="#F6D066"/>
<path d="M182.442 30.1371C181.743 32.4177 180.983 34.669 180.189 36.9179C179.941 37.6483 179.694 38.3786 179.438 39.1311C177.237 41.4091 174.894 41.2306 171.837 41.6386C168.3 42.5451 166.111 44.8425 163.672 47.4659C162.979 45.2279 162.856 44.6238 163.719 42.3332C168.064 35.1594 173.719 29.9426 182.442 30.1371Z" fill="#F2CD65"/>
<path d="M207.218 22.6025C209.895 22.6752 210.973 23.3575 213.083 25.0512C214.725 27.1231 214.725 27.1231 215.054 29.1479C214.725 30.8902 214.725 30.8902 213.224 32.3971C210.342 32.2899 208.498 32.0022 206.091 30.3722C204.965 28.6299 204.965 28.6299 205.059 26.2755C205.716 24.1094 205.716 24.1094 207.218 22.6025Z" fill="#EFCA63"/>
<path d="M174.371 64.9832C174.805 65.1697 175.238 65.3562 175.685 65.5483C175.283 68.8371 174.15 70.7311 172.119 73.318C171.611 73.9833 171.104 74.6485 170.582 75.334C168.928 76.8497 168.928 76.8497 166.851 77.0704C166.298 76.9976 165.744 76.9247 165.174 76.8497C164.649 75.5312 164.649 75.5312 164.423 73.836C165.394 72.3291 165.394 72.3291 166.816 70.8223C167.548 70.0429 167.548 70.0429 168.294 69.2477C168.979 68.5353 168.979 68.5353 169.678 67.8086C170.22 67.1715 170.762 66.5343 171.321 65.8779C172.682 64.7949 172.682 64.7949 174.371 64.9832Z" fill="#171A0D"/>
<path d="M185.618 65.8042C186.056 65.9683 186.495 66.1325 186.946 66.3016C185.777 69.8209 183.88 72.3946 181.691 75.3427C180.452 75.094 179.213 74.8454 177.937 74.5892C177.993 72.2079 178.254 70.5876 179.802 68.7355C183.378 65.4617 183.378 65.4617 185.618 65.8042Z" fill="#171A0D"/>
<path d="M173.432 55C172.964 57.6953 171.87 59.4178 170.241 61.5925C169.804 62.1946 169.366 62.7968 168.916 63.4172C167.426 64.7945 167.426 64.7945 165.373 64.9946C164.812 64.9286 164.25 64.8626 163.672 64.7945C163.672 61.7808 163.672 61.7808 165.044 60.0032C165.644 59.4088 166.244 58.8144 166.863 58.2021C167.751 57.2988 167.751 57.2988 168.658 56.3774C170.429 55 170.429 55 173.432 55Z" fill="#171A0D"/>
<path d="M70.5742 129.589C70.3264 130.086 70.0787 130.583 69.8234 131.096C67.5241 131.567 67.5241 131.567 65.3187 131.849C65.3187 131.352 65.3187 130.855 65.3187 130.342C62.3455 130.342 59.3724 130.342 56.3092 130.342C56.3092 130.094 56.3092 129.845 56.3092 129.589C58.2641 129.442 60.2191 129.302 62.1747 129.165C62.7288 129.123 63.2829 129.081 63.8537 129.037C66.3457 128.867 68.1809 128.788 70.5742 129.589Z" fill="#772BF2"/>
</g>
<defs>
<clipPath id="clip0_1_666">
<rect width="238" height="165" fill="white"/>
</clipPath>
</defs>
</svg>
