<svg width="80" height="99" viewBox="0 0 80 99" fill="none" xmlns="http://www.w3.org/2000/svg">
<path fill-rule="evenodd" clip-rule="evenodd" d="M49.9381 74.933C49.6384 63.589 54.2498 52.2764 64.361 45.449C68.2764 42.8052 72.9147 41.8426 77.4827 41.0426C58.9252 40.4051 52.4826 20.9563 49.9005 5.90039C50.7972 19.4037 43.7467 33.9892 29.3386 35.3351C43.6815 43.7843 48.6043 59.2889 49.9381 74.933Z" fill="#FCD569" stroke="#181B0E" stroke-width="4" stroke-miterlimit="1.5" stroke-linecap="round" stroke-linejoin="round"/>
<path fill-rule="evenodd" clip-rule="evenodd" d="M18.3786 96.7328C18.1735 88.9715 21.3287 81.2306 28.2469 76.5595C30.9258 74.7506 34.0994 74.0921 37.2249 73.5447C24.5276 73.1085 20.1196 59.8014 18.3528 49.5C18.9664 58.7391 14.1424 68.7186 4.28447 69.6395C14.0978 75.4206 17.4659 86.0287 18.3786 96.7328Z" fill="#FCD569" stroke="#181B0E" stroke-width="3" stroke-miterlimit="1.5" stroke-linecap="round" stroke-linejoin="round"/>
<path fill-rule="evenodd" clip-rule="evenodd" d="M13.3968 38.6C13.239 32.6296 15.6661 26.6755 20.9878 23.0821C23.0485 21.6907 25.4897 21.184 27.8939 20.763C18.1268 20.4275 14.736 10.1912 13.3769 2.26709C13.8489 9.37408 10.1382 17.0507 2.55476 17.7591C10.1038 22.206 12.6947 30.3663 13.3968 38.6Z" fill="#FCD569" stroke="#181B0E" stroke-width="3" stroke-miterlimit="1.5" stroke-linecap="round" stroke-linejoin="round"/>
</svg>
