<svg width="90" height="91" viewBox="0 0 90 91" fill="none" xmlns="http://www.w3.org/2000/svg">
<path d="M47.5739 77.0995C47.9017 78.9795 52.1817 78.1119 65.8247 73.4605C80.2633 68.5272 83.2684 66.9116 82.1321 64.9244C80.536 62.2107 47.1218 74.0455 47.5739 77.0995Z" fill="#EC4B7B"/>
<path d="M20.5288 15.3961C15.001 16.7663 14.5266 17.891 13.9477 30.9312C13.3357 44.3992 13.7031 46.882 16.2164 47.2101C20.776 47.7863 22.0807 44.2738 23.6681 27.6545C24.8322 15.3924 24.6089 14.3847 20.5288 15.3961Z" fill="#EC4B7B"/>
<path d="M55.8546 26.6838C51.8711 27.6182 50.6218 28.7698 47.1155 34.6589C36.7812 52.1683 28.0139 63.8502 35.7312 61.8753C38.8865 61.0907 41.1426 58.0351 53.91 37.9587C60.9155 26.8269 61.1923 25.4687 55.8546 26.6838Z" fill="#EC4B7B"/>
</svg>
