<svg width="90" height="91" viewBox="0 0 90 91" fill="none" xmlns="http://www.w3.org/2000/svg">
<path d="M47.5739 77.0995C47.9017 78.9795 52.1817 78.1119 65.8247 73.4605C80.2633 68.5272 83.2684 66.9116 82.1321 64.9244C80.536 62.2107 47.1218 74.0455 47.5739 77.0995Z" fill="#E58236"/>
<path d="M20.5291 15.3961C15.0013 16.7663 14.5269 17.891 13.948 30.9312C13.336 44.3992 13.7034 46.882 16.2167 47.2101C20.7763 47.7863 22.081 44.2738 23.6684 27.6545C24.8325 15.3924 24.6092 14.3847 20.5291 15.3961Z" fill="#E58236"/>
<path d="M55.8544 26.6838C51.8709 27.6182 50.6216 28.7698 47.1153 34.6589C36.781 52.1683 28.0137 63.8502 35.731 61.8753C38.8863 61.0907 41.1424 58.0351 53.9098 37.9587C60.9153 26.8269 61.1921 25.4687 55.8544 26.6838Z" fill="#E58236"/>
</svg>
