<svg width="100" height="29" viewBox="0 0 100 29" fill="none" xmlns="http://www.w3.org/2000/svg">
<path d="M94.2456 10.2448C91.4744 11.419 88.8895 12.5741 86.566 14.1771C85.7303 14.7495 84.9503 15.4293 84.184 16.1041C83.82 16.4267 83.4974 16.862 83.8074 17.3562C84.0533 17.7619 84.513 17.7874 84.9509 17.7093C86.0788 17.4941 87.2584 17.4197 88.3089 16.9933C91.6584 15.6423 94.9861 14.1876 98.1625 12.4526C99.1288 11.9289 100.112 11.3195 99.9897 10.0239C99.8716 8.87046 98.8675 8.54671 97.9682 8.20114C94.2061 6.76651 90.86 4.62389 87.679 2.23033C87.2979 1.93721 86.9168 1.6441 86.5121 1.37531C86.0055 1.04765 85.4484 0.626528 84.9056 1.2526C84.419 1.81082 84.7268 2.38559 85.0758 2.89762C85.6937 3.79111 86.4193 4.58217 87.2853 5.27465C87.7891 5.68297 88.3863 5.99401 88.7445 6.83756C84.3978 6.21975 80.1983 5.56481 75.9433 5.32847C67.4813 4.85451 59.0285 4.71213 50.6591 6.37351C47.5713 6.99219 44.5004 7.70049 41.7502 9.28186C40.2906 10.1269 39.688 9.10032 38.9188 8.27724C33.6303 2.68858 27.202 -0.352368 19.4097 0.0326017C11.8899 0.41498 6.01141 4.08083 1.25789 9.66936C0.581217 10.4555 -0.645629 11.7589 0.415561 12.5883C1.43281 13.3857 2.1724 11.7637 2.86977 11.0339C12.1849 1.21762 26.2374 0.920245 35.7891 10.3144C36.9447 11.4446 37.0911 12.2371 35.8267 13.3945C33.6195 15.4021 32.2537 17.9037 32.0122 20.925C31.8465 23.0577 32.4159 24.9575 33.7825 26.6177C35.3222 28.4866 37.3499 29.3185 39.7349 28.8893C42.0436 28.4717 43.3918 26.8854 44.0743 24.7577C45.0961 21.5827 44.5507 18.4783 43.4187 15.4419C42.5143 13.025 42.6047 12.833 44.9843 11.8636C51.1347 9.37547 57.614 8.74617 64.1702 8.63145C70.7689 8.50135 77.3366 8.98838 83.9083 9.44205C86.5689 9.63119 89.2202 9.66414 91.8819 9.54993C92.6414 9.51525 93.4747 9.37437 94.2697 10.2678L94.2456 10.2448ZM40.3172 17.118C40.8337 19.1803 41.5053 21.3143 40.8255 23.5368C40.2462 25.42 38.4685 25.8376 37.062 24.4628C36.2851 23.7063 36.0288 22.7462 36.0141 21.699C35.9887 19.7467 36.9208 18.1669 38.0416 16.6625C38.3554 16.2464 38.6445 15.6319 39.2402 15.7201C39.9031 15.8161 40.052 16.5279 40.3223 17.1321L40.3172 17.118Z" fill="#0A0F0A"/>
</svg>
