<svg width="100" height="30" viewBox="0 0 100 30" fill="none" xmlns="http://www.w3.org/2000/svg">
<path d="M94.2427 20.6026C91.4976 19.3292 88.9383 18.0799 86.6501 16.375C85.8266 15.7661 85.062 15.0478 84.3108 14.335C83.9544 13.9942 83.6409 13.5383 83.9626 13.0363C84.2179 12.6239 84.6784 12.6081 85.1149 12.6986C86.2384 12.9463 87.4166 13.0499 88.4577 13.5133C91.7775 14.9821 95.0733 16.5571 98.2114 18.4176C99.1666 18.9793 100.136 19.6298 99.9842 20.9618C99.8401 22.1475 98.8284 22.4581 97.9208 22.7935C94.1251 24.1853 90.7288 26.3162 87.4924 28.7095C87.1042 29.0027 86.716 29.296 86.3054 29.5636C85.7913 29.8896 85.2243 30.3107 84.6961 29.6533C84.2214 29.0669 84.5426 28.4818 84.9037 27.9623C85.5419 27.0559 86.2854 26.2574 87.1672 25.5638C87.6813 25.1546 88.2853 24.8479 88.663 23.9869C84.3008 24.5239 80.0845 25.1024 75.823 25.2484C67.3469 25.5427 58.8879 25.4956 50.5537 23.5921C47.4789 22.8838 44.423 22.0837 41.7078 20.3913C40.2668 19.4872 39.6407 20.5311 38.8526 21.3615C33.4354 26.9983 26.9359 29.9841 19.1496 29.4089C11.6359 28.8425 5.83859 24.9308 1.21027 19.0638C0.551196 18.2384 -0.646505 16.8674 0.433877 16.0371C1.46957 15.2388 2.17261 16.927 2.85366 17.6949C11.9493 28.0223 25.9999 28.6508 35.768 19.1908C36.9497 18.0528 37.1141 17.2397 35.8755 16.0182C33.7131 13.8992 32.4036 11.2904 32.2306 8.172C32.1132 5.97075 32.726 4.02649 34.1306 2.34725C35.7133 0.457002 37.7606 -0.353627 40.1366 0.143194C42.4367 0.626388 43.7493 2.29169 44.3838 4.49958C45.3339 7.79424 44.7178 10.9802 43.5165 14.0828C42.557 16.5522 42.6431 16.7521 45.0015 17.8054C51.0976 20.51 57.565 21.3069 64.1206 21.5754C70.7185 21.8606 77.3 21.5095 83.8838 21.1927C86.5495 21.0587 89.2029 21.0856 91.8628 21.2643C92.6222 21.3174 93.4522 21.4817 94.268 20.5794L94.2427 20.6026ZM40.452 12.2848C41.0155 10.1717 41.7358 7.98846 41.1061 5.68304C40.5694 3.72945 38.8006 3.2585 37.3625 4.64269C36.5681 5.40431 36.2899 6.38766 36.2514 7.46622C36.1817 9.47712 37.0783 11.1262 38.1653 12.7019C38.4698 13.1378 38.7451 13.7776 39.343 13.7003C40.0083 13.6166 40.1734 12.8867 40.4575 12.2704L40.452 12.2848Z" fill="#0A0F0A"/>
</svg>
