<svg width="73" height="73" viewBox="0 0 73 73" fill="none" xmlns="http://www.w3.org/2000/svg">
<path d="M18.2321 47.0116C6.7868 32.2202 8.49785 18.1132 22.1865 14.6531C26.3692 13.5884 31.7307 14.8052 34.6966 17.4668L36.2176 18.8357L38.461 17.5049C51.4272 9.67189 67.3973 24.1211 60.629 37.5436C54.4691 49.7493 34.4305 62.8677 30.3238 57.3922C29.1071 55.7572 29.7154 55.529 32.9475 56.3275C36.0274 57.088 50.2484 44.464 53.7846 37.8098C58.0433 29.8247 57.2068 25.4899 50.4005 20.0144C47.5867 17.771 43.214 18.7596 39.7918 22.486C37.0921 25.3758 34.2783 25.604 31.9588 21.9537C25.3806 11.6872 14.5817 19.8243 17.6617 32.7145C18.9545 38.0379 20.3615 40.6996 25.7229 47.7721C29.3732 52.5631 29.4872 52.7913 28.2704 53.4377C25.9509 54.6925 22.3387 52.373 18.2321 47.0116Z" fill="#EC4B7B"/>
<path d="M46.4843 25.0336C44.6211 24.6914 46.18 22.6 47.9291 23.2084C49.374 23.7408 51.3894 24.6153 52.1879 26.8587C53.0625 29.2162 51.3132 31.4977 50.3246 31.2315C49.45 31.0034 49.184 30.0147 49.298 27.9995C49.4121 25.9842 48.3475 25.3758 46.4843 25.0336Z" fill="#EC4B7B"/>
<path d="M50.7431 37.0872C48.2715 37.6575 46.4083 35.7944 47.511 34.5396C48.3475 33.627 51.5035 33.5509 52.4161 34.4635C53.1766 35.262 52.6823 36.6309 50.7431 37.0872Z" fill="#EC4B7B"/>
</svg>
